<?xml version="1.0" encoding="utf-8"?>
<svg width="247" height="34" fill="none" xmlns="http://www.w3.org/2000/svg" >
  <defs>
    <path id="path-0" style="fill: none;" d="M 36.76492706150724 26.299820147908825 L -6.695983669021118 33.96939262976671"/>
    <path id="path-1" style="fill: none;" d="M 35.08922243534981 37.79036615584533 L 68.1231627809473 66.21491947647573"/>
    <path id="path-2" style="fill: none;" d="M 51.367 59.335 C 60.207 69.367 63.903 74.129 62.619 81.837 C 57.426 90.256 54.136 92.37 46.34 92.37 L 44.186 92.37 C 40.483 92.37 37.397 92.398 34.371 89.977"/>
    <path id="path-3" style="fill: none;" d="M 35.089 72.262 C 38.492 76.861 35.2 84.902 33.414 87.583 C 28.17 95.448 20.473 97.398 13.066 97.398 C -0.004 97.398 -10.643 93.082 -19.251 87.343 C -23.954 81.465 -23.321 77.173 -23.321 71.544 C -22.245 63.889 -19.696 57.318 -15.182 54.308 C -12.782 52.708 -9.799 50.957 -7.761 50.957 L -7.522 50.957 C -6.989 50.957 -6.223 51.196 -6.085 51.196"/>
    <path id="path-4" style="fill: none;" d="M -51.329 43.536 C -51.569 37.531 -52.809 33.807 -50.611 29.412 C -48.221 25.826 -46.366 22.273 -43.43 20.315 C -40.891 18.016 -37.562 18.4 -35.29 18.4 L -34.093 18.639 C -32.815 18.639 -30.024 19.101 -30.024 19.836"/>
    <style>@import url(https://fonts.googleapis.com/css2?family=Outfit%3Aital%2Cwght%400%2C100%3B0%2C200%3B0%2C300%3B0%2C400%3B0%2C500%3B0%2C600%3B0%2C700%3B0%2C800%3B0%2C900&amp;display=swap);</style>
  </defs>
  <path d="M18 33h16v-2.586h-7.277A15.924 15.924 0 0 1 18 33ZM18 27.182a3.236 3.236 0 0 1-3.232-3.232A3.236 3.236 0 0 1 18 20.716v-7.434a3.236 3.236 0 0 1-3.232-3.232A3.236 3.236 0 0 1 18 6.817V1C9.163 1 2 8.163 2 17s7.163 16 16 16v-5.818Zm-6.95-6.95A3.236 3.236 0 0 1 7.818 17a3.236 3.236 0 0 1 3.232-3.232A3.236 3.236 0 0 1 14.284 17a3.236 3.236 0 0 1-3.232 3.232Z" fill="#E30B13"/>
  <path d="M34 17c0-8.837-7.163-16-16-16v5.818a3.236 3.236 0 0 1 3.232 3.232A3.236 3.236 0 0 1 18 13.284v7.434a3.236 3.236 0 0 1 3.232 3.233A3.236 3.236 0 0 1 18 27.181V33c3.218 0 6.214-.95 8.723-2.586C31.103 27.56 34 22.618 34 17Zm-9.05-3.232A3.236 3.236 0 0 1 28.181 17a3.236 3.236 0 0 1-3.232 3.232A3.236 3.236 0 0 1 21.716 17a3.236 3.236 0 0 1 3.233-3.232Z" fill="#CE080F"/>
  <text style="fill: rgb(255, 255, 255); font-family: Outfit; font-size: 25.9px; font-weight: 700; stroke-linecap: round; stroke-width: 0px; white-space: pre;" x="35.567" y="25.776">CINEMA.COM</text>
</svg>